<?xml version="1.0" encoding="UTF-8"?>
<svg id="Layer_1" data-name="Layer 1" xmlns="http://www.w3.org/2000/svg" viewBox="0 0 200 200">
  <defs>
    <style>
      .cls-1 {
        stroke-width: 0px;
      }

      .cls-2 {
        stroke: #fff;
        stroke-miterlimit: 10;
        stroke-width: .75px;
      }
    </style>
  </defs>
  <rect class="cls-1" width="200" height="200" rx="15" ry="15"/>
  <g>
    <g>
      <path class="cls-2" d="m69.02,58.82h-4.28v29.03h.07v30.45c0,2.33,1.89,4.21,4.22,4.21h9.01v18.74c0,4.14,3.36,7.5,7.5,7.5s7.5-3.36,7.5-7.5v-18.74h13.95v18.74c0,4.14,3.36,7.5,7.5,7.5s7.5-3.36,7.5-7.5v-18.74h9.01c2.33,0,4.21-1.89,4.21-4.21v-30.45h.07v-29.03h-66.25Z"/>
      <path class="cls-2" d="m146.53,56.42c-4.14,0-7.5,3.36-7.5,7.5v33.71c0,4.14,3.36,7.5,7.5,7.5s7.5-3.36,7.5-7.5v-33.71c0-4.14-3.36-7.5-7.5-7.5Z"/>
      <path class="cls-2" d="m53.47,56.42c-4.14,0-7.5,3.36-7.5,7.5v33.71c0,4.14,3.36,7.5,7.5,7.5s7.5-3.36,7.5-7.5v-33.71c0-4.14-3.36-7.5-7.5-7.5Z"/>
      <path class="cls-2" d="m117,28.23l6.04-8.52c.13-.18-.05-.52-.4-.76-.34-.24-.73-.3-.85-.13l-6.23,8.79c-4.21-1.65-9.33-2.67-15.56-2.69-6.27-.02-11.4.97-15.63,2.6l-6.16-8.7c-.13-.18-.51-.12-.85.13-.35.25-.53.59-.4.76l5.96,8.42c-17.38,7.68-17.9,26.54-17.9,26.54h69.95s-.71-18.69-17.97-26.43Zm-32.35,15.41c-2.33,0-4.21-1.89-4.21-4.21s1.88-4.21,4.21-4.21,4.21,1.89,4.21,4.21-1.89,4.21-4.21,4.21Zm30.7,0c-2.33,0-4.21-1.89-4.21-4.21s1.89-4.21,4.21-4.21,4.21,1.89,4.21,4.21-1.89,4.21-4.21,4.21Z"/>
    </g>
    <g>
      <path class="cls-2" d="m86.25,171.07v9.54h4.41v-9.54c0-2.82,1.48-4.32,4.31-4.32v-4.36c-5.68,0-8.72,3.02-8.72,8.68Z"/>
      <path class="cls-2" d="m79.5,164.24c-1.23-1.2-2.91-1.91-4.98-1.91-5.06,0-8.9,4.17-8.9,9.31s3.84,9.33,8.9,9.33c2.07,0,3.75-.7,4.98-1.9v1.54h4.42v-23.23h-4.42v6.86Zm0,9.65c0,.09-.05.27-.09.32-.84,1.54-2.56,2.52-4.42,2.52-2.72,0-4.91-2.27-4.91-5.09s2.2-5.07,4.91-5.07c1.81,0,3.52.89,4.38,2.38.05.11.12.25.12.43v4.52Z"/>
      <path class="cls-2" d="m55.36,162.39c-4.74,0-8.42,3.8-8.42,8.56v9.67h4.41v-9.67c0-2.34,1.65-4.13,4-4.13s4,1.79,4,4.13v9.67h4.41v-9.67c0-4.75-3.7-8.56-8.42-8.56Z"/>
      <path class="cls-2" d="m40.18,164.24c-1.23-1.2-2.91-1.86-4.98-1.86-5.06,0-8.9,4.11-8.9,9.25s3.84,9.33,8.9,9.33c2.07,0,3.75-.7,4.98-1.9v1.54h4.42v-17.87h-4.42v1.5Zm0,9.63c0,.09-.05.29-.09.34-.84,1.54-2.55,2.52-4.41,2.52h0c-2.72,0-4.91-2.27-4.91-5.09s2.2-5.07,4.91-5.07c1.81,0,3.61.84,4.38,2.38.05.11.12.25.12.43v4.5Z"/>
      <path class="cls-2" d="m118.19,156.24c-1.41,0-2.55,1.14-2.55,2.57s1.14,2.57,2.55,2.57,2.56-1.16,2.56-2.57-1.14-2.57-2.56-2.57Z"/>
      <path class="cls-2" d="m136.27,164.24c-1.23-1.2-2.91-1.86-4.98-1.86-5.06,0-8.9,4.11-8.9,9.25s3.84,9.35,8.9,9.35c2.07,0,3.75-.71,4.98-1.91v1.54h4.41v-23.23h-4.41v6.86Zm0,9.67c0,.09-.05.25-.09.3-.84,1.54-2.55,2.52-4.41,2.52h0c-2.72,0-4.91-2.27-4.91-5.09s2.2-5.07,4.91-5.07c1.81,0,3.52.89,4.38,2.38.06.11.13.25.13.43v4.54Z"/>
      <path class="cls-2" d="m104.62,162.39c-5.14,0-9.33,4.11-9.33,9.25s4.18,9.33,9.33,9.33,9.35-4.16,9.35-9.33-4.18-9.25-9.35-9.25Zm0,14.14c-2.68,0-4.86-2.18-4.86-4.88s2.18-4.86,4.86-4.86,4.88,2.18,4.88,4.86-2.16,4.88-4.88,4.88Z"/>
      <rect class="cls-2" x="115.97" y="162.74" width="4.42" height="17.87"/>
      <polygon class="cls-2" points="169.07 162.27 164.06 175.36 159.04 162.29 154.3 162.29 161.93 181.07 166.08 181.07 173.7 162.27 169.07 162.27"/>
      <path class="cls-2" d="m147.95,173.47v-7.32h4.67v-3.86h-4.67v-4.84h-4.14v16.02c0,4.82,3.1,7.82,8.1,7.82h.83l.02-4.09h-.85c-2.44,0-3.96-1.43-3.96-3.73Z"/>
    </g>
  </g>
</svg>