<?xml version="1.0" encoding="UTF-8"?>
<svg id="Layer_1" data-name="Layer 1" xmlns="http://www.w3.org/2000/svg" viewBox="0 0 200 200">
  <defs>
    <style>
      .cls-1 {
        stroke-width: 0px;
      }

      .cls-2 {
        stroke: #fff;
        stroke-miterlimit: 10;
        stroke-width: .75px;
      }
    </style>
  </defs>
  <rect class="cls-1" width="200" height="200" rx="15" ry="15"/>
  <g>
    <path class="cls-2" d="m22.42,104.24c-.03-4.79.91-9.31,3.43-13.43,3.76-6.15,12.33-11.28,21.27-7.11,3.94,1.83,7.45,1.59,11.39-.05,7.63-3.18,15.37-1.53,20.26,3.72,1.12,1.21,1.51,1.85-.14,3.16-9.24,7.38-8.23,20.75,1.95,26.76,1.26.74,1.56,1.3,1.02,2.69-1.99,5.07-4.78,9.64-8.38,13.7-3.69,4.15-7.36,5.04-12.38,2.76-4.89-2.23-9.56-2.15-14.43.03-5.06,2.27-8.23,1.58-11.95-2.54-7.6-8.41-11.64-18.33-12.06-29.68Z"/>
    <path class="cls-2" d="m129.05,83.88c3.62,0,7.26,0,10.89,0,1.41,0,1.25,1.24,1.5,2.02,3.79,11.63,7.53,23.27,11.29,34.91.24.73.49,1.46.77,2.29.95-.56.9-1.51,1.13-2.25,3.63-11.6,7.26-23.19,10.78-34.83.53-1.74,1.29-2.29,3.07-2.19,2.93.17,5.88.05,9.1.05-1.89,5.39-3.69,10.53-5.48,15.67-3.96,11.33-7.94,22.64-11.82,33.99-.52,1.51-1.17,2.07-2.8,1.99-2.96-.15-5.93-.06-8.89-.03-.91,0-1.56-.07-1.95-1.16-5.85-16.6-11.76-33.19-17.64-49.78-.05-.13.02-.3.05-.67Z"/>
    <path class="cls-2" d="m110.65,107.73c0,4.21-.04,8.42,0,12.63.06,5.61,1.24,6.73,6.77,6.62q3.31-.07,3.31,3.35,0,5.38-5.47,5.57c-2.73.09-5.47.12-8.14-.56-3.81-.97-6.28-3.25-7-7.26-.41-2.31-.55-4.64-.55-6.98,0-8.89-.06-17.77.04-26.66.02-1.8-.5-2.33-2.23-2.16-1.54.15-3.12-.05-4.67.06-1.27.09-1.61-.4-1.55-1.6.11-2.18-.69-4.92.35-6.38,1.01-1.42,3.92-.45,5.99-.43,1.58.01,2.17-.35,2.12-2.05-.13-3.89.03-7.8-.07-11.69-.04-1.48.45-1.86,1.86-1.79,2.49.11,4.99.12,7.48,0,1.5-.08,1.83.46,1.8,1.85-.09,3.97.02,7.95-.06,11.93-.02,1.3.31,1.81,1.69,1.74,2.18-.11,4.37.04,6.55-.05,1.33-.05,2.07.18,1.91,1.75-.22,2.15.87,4.92-.43,6.31-1.22,1.29-3.98.35-6.07.38-3.61.06-3.61.02-3.61,3.52,0,3.98,0,7.95,0,11.93Z"/>
    <path class="cls-2" d="m67.67,64.03c-.25,7.75-6.44,14.9-13.37,15.78-1.9.24-2.29-.4-2.18-2.12.46-7.08,6.73-14.08,13.7-15.35,1.77-.32,2.06.41,1.85,1.69Z"/>
  </g>
</svg>