<?xml version="1.0" encoding="UTF-8"?>
<svg id="Layer_1" data-name="Layer 1" xmlns="http://www.w3.org/2000/svg" viewBox="0 0 200 200">
  <defs>
    <style>
      .cls-1 {
        stroke-width: 0px;
      }

      .cls-2 {
        stroke: #fff;
        stroke-miterlimit: 10;
        stroke-width: .75px;
      }
    </style>
  </defs>
  <rect class="cls-1" width="200" height="200" rx="15" ry="15"/>
  <g>
    <g>
      <path class="cls-2" d="m34.26,82.82v-4.23c.68,0,1.37,0,2.05,0,1.88-.01,3.83-.02,5.73.01.57.01,1.19-.26,1.64-.69.36-.35.56-.79.56-1.2.02-.72.02-1.44,0-2.16,0-.35,0-.7,0-1.05v-.36l-.35-.32c-.4-.37-.94-.88-1.82-.88-2.6.01-5.2.02-7.8,0,0-.05,0-.1,0-.16-.07-1.88-.24-6.88.88-7.84,1.66-1.43,4.75-1.1,7.26-.66h.12c.21.02.42,0,.63-.02l.25-.07.16-.11c.41-.29,1.03-.72,1.06-1.65l.02-.41c.06-1.13.15-2.67-.95-3.66l-.11-.1-.14-.05c-2.67-1.02-5.83-1.29-9.13-.78-8.67,1.36-8.38,11.37-8.05,15.7,0,0-.02,0-.02,0-3.47.38-5.32.78-5.78,1.85l-.05.16c-.16.78-.15,1.55-.14,2.3,0,.2,0,.4,0,.59v.36l.38.35c.41.39.93.87,1.84.87,1.28-.02,2.56-.01,3.82.02,0,3.42,0,6.84,0,10.26,0,4.93.01,10.03-.02,15.04-.01.97.8,2.09,1.91,2.12.52.02,1.05.03,1.62.03.82,0,1.71-.02,2.74-.06l.65-.05.22-.23c.33-.35.88-1.05.88-1.82-.05-7.03-.05-14.18-.04-21.09Z"/>
      <path class="cls-2" d="m54.89,71.94l-.5-.02c-2.63-.09-4.18-.03-4.85.55l-.06.06c-.45.48-.67,1.14-.62,1.79,0,3.28-.02,6.56-.04,9.84-.04,6.49-.08,13.19.04,19.78.01.82.05,1.2.79,1.64.1.06.24.14.43.28l.18.13.22.02c.59.06,1.18.08,1.76.08.45,0,.9-.01,1.34-.02.43-.01.86-.02,1.29-.02l.53-.02.39-.07.23-.24c.38-.41.86-.91.86-1.78,0-3.53.02-7.06.05-10.59.05-6.41.1-13.04-.07-19.55-.02-1.14-.74-1.81-1.97-1.84Z"/>
      <path class="cls-2" d="m50.69,67.42l.04.02c.69.3,1.45.45,2.2.45s1.46-.14,2.12-.42c1.13-.48,1.94-1.33,2.35-2.45.49-1.34.42-2.87-.18-4.09-.53-1.07-1.42-1.83-2.56-2.18-1.35-.42-3.42-.38-4.58.52-.78.6-1.74,1.61-1.91,2.96-.31,2.32.63,4.27,2.54,5.2Z"/>
      <path class="cls-2" d="m178.15,71.94c-.65-.12-1.76-.07-2.84-.02-.44.02-.84.04-1.11.04-1.01-.04-1.97.59-2.36,1.58-.8,2.28-1.61,4.55-2.42,6.83-1.94,5.46-3.94,11.09-5.83,16.7l-.23-.67c-2.54-7.53-5.17-15.33-8.06-22.87-.24-.65-.73-1.51-2.14-1.55l-.85-.02c-1.15-.03-2.34-.07-3.51-.01h-.11c-.35.08-.7.19-1.02.34l-.38.17-.09.4c-.12.55-.11,1.13.04,1.67l.03.08c2.19,5.56,4.41,11.12,6.63,16.67,1.73,4.32,3.45,8.65,5.17,12.98.43,1.07,1.21,1.72,2.16,1.77h0c.25.01.51.03.78.05.63.04,1.3.09,1.97.09.78,0,1.58-.06,2.33-.26,1.14-.36,1.46-1.25,1.73-1.97l.07-.19c2.45-6.51,5.1-13.08,7.66-19.43,1.11-2.76,2.23-5.52,3.33-8.28.49-1.23.52-1.48.54-2.16,0-.21.01-.48.05-.89l.07-.76-1.59-.27Z"/>
      <path class="cls-2" d="m122.64,78.56l1.06.02c1,.02,2.04.03,3.06.08l-.02,3.2c-.03,5.05-.05,10.26.02,15.36-.02,1.82.45,3.62,1.36,5.23,1.1,1.79,2.82,3.07,4.85,3.61.58.15,2.51.41,4.64.41,2.82,0,5.98-.45,6.81-2.18l.06-.12.02-.14c.12-.99.16-2,.11-3.03-.01-.2-.04-.41-.08-.61l-.05-.25-1.1-1.12-.45.1c-1.75.37-3.8.72-5.83.48-.81-.09-2.05-.75-2.1-1.47-.39-5.44-.31-11.11-.24-16.59.01-.96.03-1.92.04-2.87,2.6-.08,5.11-.11,7.46-.07.98.02,2.07-.77,2.1-1.89.03-.74.02-1.49.01-2.2,0-.36,0-.71,0-1.07v-.37l-.27-.25c-.66-.6-1.25-.89-1.81-.89-2.42-.03-4.87,0-7.25.01h-.24s0-8.79,0-8.79l-.73-.09c-.11-.01-.25-.04-.41-.06-1.88-.29-3.97-.52-5.1.35-.42.32-.67.76-.73,1.28-.18,1.59-.34,3.18-.51,4.77-.09.91-.19,1.81-.28,2.71l-.29.04c-1.39.18-2.83.36-4.3.62-.61.16-1.11.58-1.39,1.15l-.07.14v.15c-.09.83-.1,1.67-.07,2.55.12,1.1.8,1.8,1.72,1.8Z"/>
      <path class="cls-2" d="m84.27,96.52c1.65,5.67,6.71,9.81,12.6,10.29.51.05,1.35.09,2.36.09,3.94,0,10.66-.54,12.52-2.91l.12-.16.04-.2c.28-1.45.19-2.96.07-4.5l-.09-1.1-1.03.38c-4.54,1.68-13.1,3.18-16.74.02-2.18-1.89-2.79-4.65-3.08-7.25l19.95.02.3-.23c.52-.38,1-.74,1.19-1.71.43-2.4,1.46-10.56-3.61-15.05-5.31-4.73-15.78-4.28-20.73.9-5.78,6.05-5.71,15.32-3.89,21.42Zm6.89-11.21c.35-2.45,1-4.45,2.6-6.09,1.22-1.25,3.34-1.94,5.53-1.82,2.08.12,3.84.91,4.84,2.19,1.29,1.64,1.39,4.08,1.27,5.75-2.35,0-4.71,0-7.07-.01-2.39,0-4.79,0-7.18-.01Z"/>
      <path class="cls-2" d="m65.36,106.04c.67.03,1.35.05,2.08.05s1.48-.02,2.3-.05h.05c.39-.04.69-.21.92-.34.08-.04.16-.09.24-.12l.45-.17.08-.47c.05-.32.09-.64.09-.98-.02-7.42-.02-14.84-.02-22.26.97-.8,2.05-1.42,3.22-1.85,2.16-.76,4.36-.72,6.7-.68h.66s0,.01.01.01c.73,0,1.32-.69,1.54-1.16l.07-.14v-.16c.1-1.55.09-3.12-.01-4.67l-.02-.36-.28-.23c-.48-.39-1.06-.63-1.69-.7-3.79-.35-7.46,1.02-10.69,3.96-.13-1.63-.47-3.04-1.47-3.51l-.24-.07c-1.41-.19-2.84-.23-4.26-.12l-.2.02-.17.11c-.76.47-1.14,1.04-1.14,1.69,0,3.58,0,7.15.03,10.73.03,6.36.06,12.93-.04,19.39,0,.92.78,2.04,1.81,2.1Z"/>
    </g>
    <g>
      <path class="cls-2" d="m151.71,124.68c-.75-1.08-2.14-1.55-3.43-1.11-10.78,4.35-20.79,7.12-30.6,8.49-12.27,1.71-24.69,1.53-36.9-.54-14.97-2.56-29.07-7.61-40.84-14.64-.23-.11-.47-.19-.67-.22-.45-.1-.96,0-1.41.3-.52.34-.9.89-.99,1.42l-.03.2.06.19c.12.4.32.76.59,1.08l.06.07c4.04,3.86,8.52,7.28,13.31,10.15,14.17,8.58,29.87,13.33,45.39,13.74h0c1.24.03,2.44.05,3.59.05,2.42,0,4.65-.07,6.77-.2,9.2-.68,18.66-2.87,28.11-6.5,4.69-1.8,9.09-4.34,12.84-6.58.6-.36,2.87-1.94,3.56-2.55,1.05-.94,1.29-2.24.59-3.33Z"/>
      <path class="cls-2" d="m150.47,114.28c-3.53.38-6.93,1.4-10.07,3.03-1.13.56-1.64,1.26-2.24,2.06l-.53.72.5.52c.22.23.98.97,1.81.87,13.32-1.63,15.09-.1,15.31.22.34.5.36.62.29,1.39-.62,5.15-2.57,10.06-4.19,13.77l-.18.42.99,1.55.42.03c.07,0,.13,0,.2,0,.39,0,.78-.1,1.12-.28l.09-.06c2.88-2.06,5.23-5.3,6.98-9.64.04-.1,3.82-10.62,1.36-12.65-3.15-2.63-9.87-2.17-11.86-1.97Z"/>
    </g>
  </g>
</svg>