<?xml version="1.0" encoding="UTF-8"?>
<svg id="Layer_1" data-name="Layer 1" xmlns="http://www.w3.org/2000/svg" viewBox="0 0 200 200">
  <defs>
    <style>
      .cls-1 {
        stroke-width: 0px;
      }

      .cls-2 {
        stroke: #fff;
        stroke-miterlimit: 10;
        stroke-width: .75px;
      }
    </style>
  </defs>
  <rect class="cls-1" width="200" height="200" rx="15" ry="15"/>
  <g>
    <path id="path3023" class="cls-2" d="m45.82,91.59c0-4.49-3.62-8.11-8.04-8.11h-3.99v16.15h3.99c4.42,0,8.04-3.62,8.04-8.04m18.13,32.2h-14.63l-11.61-16.12h-3.91v16.08h-12.89v-48.32h18.47c10.65,0,19.34,7.24,19.34,16.15,0,5.43-3.33,10.29-8.4,13.26l13.64,18.95"/>
    <path id="path3027" class="cls-2" d="m78.49,94.49c-3.4,0-6.3,4.63-6.3,10.36s2.9,10.36,6.3,10.36,6.38-4.63,6.38-10.36-2.89-10.36-6.38-10.36m19.85,10.36c0,10.94-8.9,19.71-19.85,19.71s-19.78-8.76-19.78-19.71,8.83-19.71,19.78-19.71,19.85,8.77,19.85,19.71"/>
    <path id="path3031" class="cls-2" d="m128.59,85.94l-14.85,14.85v-14.9h-12.89v37.87h12.89v-15.36l15.51,15.36h16.23l-19.7-19.71,16.32-16.31v22.47c0,7.46,4.49,14.35,15.79,14.35,5.36,0,10.29-3.04,12.68-5.79l5.8,5h2.75v-37.82h-12.89v24.48c-1.45,2.53-3.47,4.13-6.6,4.13s-4.63-1.88-4.63-7.89v-20.72h-26.39Z"/>
  </g>
</svg>